<svg width="14" height="14" viewBox="0 0 14 14" fill="none" xmlns="http://www.w3.org/2000/svg">
<path d="M7.60037 1.03073C7.60037 1.03073 9.40038 3.4889 9.40038 7.22223C9.40038 10.9556 7.60037 13.4137 7.60037 13.4137M6.40001 13.4137C6.40001 13.4137 4.60001 10.9556 4.60001 7.22223C4.60001 3.4889 6.40001 1.03073 6.40001 1.03073M1.3782 9.4H12.6227M1.3782 5.04479H12.6227M7.00001 13.4444C3.6863 13.4444 1 10.6587 1 7.22222C1 3.78578 3.6863 1 7.00001 1C10.3137 1 13 3.78578 13 7.22222C13 10.6587 10.3137 13.4444 7.00001 13.4444Z" stroke="black" stroke-width="0.875" stroke-linecap="round" stroke-linejoin="round"/>
</svg>
