<svg  width="25" height="24" viewBox="0 0 25 24" fill="currentColor"  xmlns="http://www.w3.org/2000/svg">
<path fill="currentColor"  fill-rule="evenodd" clip-rule="evenodd" d="M17.4843 16.5302L18.0146 17.0605L19.0753 15.9999L18.545 15.4696L15.8253 12.7499L23.0146 12.7499L23.0146 11.2499L15.8253 11.2499L18.545 8.53022L19.0753 7.99989L18.0146 6.93923L17.4843 7.46956L13.4843 11.4696L12.954 11.9999L13.4843 12.5302L17.4843 16.5302ZM8.20399 12.7499L1.01465 12.7499L1.01465 11.2499L8.20399 11.2499L5.48432 8.53022L4.95399 7.99989L6.01465 6.93923L6.54498 7.46956L10.545 11.4696L11.0753 11.9999L10.545 12.5302L6.54498 16.5302L6.01465 17.0605L4.95399 15.9999L5.48432 15.4696L8.20399 12.7499Z" />
</svg>
