<svg width="25" height="24" viewBox="0 0 25 24" fill="none" xmlns="http://www.w3.org/2000/svg">
<path d="M19.0273 11L19.0273 20.4C19.0273 20.7314 18.7587 21 18.4273 21H5.62734C5.29597 21 5.02734 20.7314 5.02734 20.4L5.02734 11" stroke="black" stroke-width="1.5" stroke-linecap="round" stroke-linejoin="round"/>
<path d="M10.0273 17L10.0273 11" stroke="black" stroke-width="1.5" stroke-linecap="round" stroke-linejoin="round"/>
<path d="M14.0273 17L14.0273 11" stroke="black" stroke-width="1.5" stroke-linecap="round" stroke-linejoin="round"/>
<path d="M21.0273 7L16.0273 7M3.02734 7L8.02734 7M8.02734 7L8.02734 3.6C8.02734 3.26863 8.29597 3 8.62734 3L15.4273 3C15.7587 3 16.0273 3.26863 16.0273 3.6L16.0273 7M8.02734 7L16.0273 7" stroke="black" stroke-width="1.5" stroke-linecap="round" stroke-linejoin="round"/>
</svg>
